<?xml version="1.0" encoding="UTF-8"?>
<svg width="512" height="512" viewBox="0 0 512 512" xmlns="http://www.w3.org/2000/svg">
  <rect width="512" height="512" fill="#4A90E2"/>
  <ellipse cx="256" cy="300" rx="120" ry="80" fill="#FFD700"/>
  <circle cx="340" cy="220" r="60" fill="#FFD700"/>
  <ellipse cx="390" cy="220" rx="30" ry="15" fill="#FF8C00"/>
  <circle cx="360" cy="210" r="8" fill="#000000"/>
  <circle cx="362" cy="208" r="3" fill="#FFFFFF"/>
  <ellipse cx="220" cy="300" rx="50" ry="30" fill="#FFA500"/>
  <path d="M0 400 Q128 380 256 400 T512 400 L512 512 L0 512 Z" fill="#1E90FF"/>
  <path d="M0 440 Q128 420 256 440 T512 440 L512 512 L0 512 Z" fill="#5BA0F2" opacity="0.5"/>
  <rect x="80" y="100" width="10" height="150" fill="#8B4513"/>
  <rect x="90" y="100" width="60" height="40" fill="#FF0000"/>
  <rect x="90" y="140" width="60" height="40" fill="#FFFFFF"/>
  <rect x="90" y="180" width="60" height="40" fill="#FF0000"/>
</svg>
